<svg xmlns="http://www.w3.org/2000/svg" width="56" height="56" viewBox="0 0 56 56">
  <defs>
    <linearGradient id="g" x1="0" y1="0" x2="56" y2="56" gradientUnits="userSpaceOnUse">
      <stop offset="0" stop-color="#2E9EF7"/>
      <stop offset="1" stop-color="#9B5DE5"/>
    </linearGradient>
  </defs>
  <circle cx="28" cy="28" r="27" fill="url(#g)"/>
  <path fill="#ffffff" d="M28 18c7.6 0 13.9 4.7 16.9 10.5.4.9.4 1.9 0 2.8C41.9 37.3 35.6 42 28 42s-13.9-4.7-16.9-10.5c-.4-.9-.4-1.9 0-2.8C14.1 22.7 20.4 18 28 18Zm0 5.5a6.5 6.5 0 1 0 0 13 6.5 6.5 0 0 0 0-13Zm0 3.5a3 3 0 1 1 0 6 3 3 0 0 1 0-6Z"/>
</svg>
